PathFileType	4	(X/Y/Z)	/Users/visionmauri/Downloads/Videos/OAW02-top_Sports2D/OAW02-top_Sports2D_px_person00.trc
DataRate	CameraRate	NumFrames	NumMarkers	Units	OrigDataRate	OrigDataStartFrame	OrigNumFrames
30.0	30.0	11	22	m	30.0	1079	2158
Frame#	Time	Hip			RHip			RKnee			RAnkle			RBigToe			RSmallToe			RHeel			LHip			LKnee			LAnkle			LBigToe			LSmallToe			LHeel			Neck			Head			Nose			RShoulder			RElbow			RWrist			LShoulder			LElbow			LWrist			
		X1	Y1	Z1	X2	Y2	Z2	X3	Y3	Z3	X4	Y4	Z4	X5	Y5	Z5	X6	Y6	Z6	X7	Y7	Z7	X8	Y8	Z8	X9	Y9	Z9	X10	Y10	Z10	X11	Y11	Z11	X12	Y12	Z12	X13	Y13	Z13	X14	Y14	Z14	X15	Y15	Z15	X16	Y16	Z16	X17	Y17	Z17	X18	Y18	Z18	X19	Y19	Z19	X20	Y20	Z20	X21	Y21	Z21	X22	Y22	Z22
1079	35.983341060114356	655.1925030038457	1015.2129665865683	0.0	627.5146778052529	1017.0998861495523	0.0	633.6993141924378	1105.064447153462	0.0	644.3312102533623	1174.1937148402585	0.0	641.8348500594154	1211.134105356096	0.0	630.0350930881615	1203.4419079427107	0.0	649.8063486820976	1181.3915298695283	0.0	680.0410770119605	1017.0960520656657	0.0	673.9489250168467	1113.5810523259702	0.0	670.4031413885332	1217.1134933230483	0.0	668.904220850234	1245.2327312258526	0.0	685.4791144535423	1243.6602110887675	0.0	665.3492571366373	1231.8567426211182	0.0	662.0922992095128	873.4652483508314	0.0	669.1960292593378	816.9862495264734	0.0	669.2812615534959	878.912380290467	0.0	613.103677334756	879.4810980079639	0.0	585.9746886912603	949.7422656677363	0.0	574.5312389710003	1016.8064650510539	0.0	714.3203874861777	881.4636815687797	0.0	724.8056263103459	946.4300691936872	0.0	730.3724430829691	1003.0098821988945	0.0
1080	36.01668984700974	656.395378853601	1019.8004136755221	0.0	628.4113757588777	1022.3609378463688	0.0	634.7559392088416	1109.320817263351	0.0	644.2076770190257	1175.4124839832648	0.0	641.830348270198	1210.2939688340832	0.0	630.3305010716973	1202.7743951986808	0.0	648.9957772382555	1181.6482673709413	0.0	680.9287414030716	1022.179950887169	0.0	672.9535807246468	1118.8119211820292	0.0	668.24155662622	1223.8938678954096	0.0	667.4096389248681	1249.6858299220678	0.0	682.8339597889452	1249.070350923732	0.0	662.6649686525166	1240.495015099557	0.0	662.4436787421592	876.6799636120285	0.0	670.6394020103489	817.753919148338	0.0	669.4924702895754	880.1920008533742	0.0	613.099890166142	884.5449745877986	0.0	586.7301240918639	955.203073427254	0.0	576.5821355532835	1021.9828314639072	0.0	716.0225181276356	886.2603436865351	0.0	725.8617695200275	951.1402715399971	0.0	731.8358051766517	1007.3195366493792	0.0
1081	36.05003863390512	657.5452334931389	1024.4071013668479	0.0	628.9331000024971	1027.104702874446	0.0	634.8424474480196	1113.4206500392731	0.0	644.1865936221508	1175.4291034885339	0.0	642.4796380476046	1209.5012573210201	0.0	630.3958044829689	1202.0554489216079	0.0	647.9475874097546	1180.8996587518532	0.0	681.7206501634936	1027.6362217710296	0.0	672.0045716312748	1123.308624739638	0.0	665.6182463288505	1229.510807621138	0.0	665.2051720353736	1255.1223105235379	0.0	679.4976619913643	1254.1621133838617	0.0	660.3030127947472	1247.175628672827	0.0	663.6199382995985	879.5812831545106	0.0	671.734219675487	818.1184964087952	0.0	670.521465387771	881.3838653891058	0.0	613.2195038771595	889.1672094023725	0.0	587.4780562508206	959.649312659281	0.0	578.2299559521839	1025.8240013611614	0.0	717.606889209016	890.60464844313	0.0	727.3422984831209	955.475313322777	0.0	733.791315074964	1010.7750876459185	0.0
1082	36.0833874208005	658.468013531518	1028.7667432927951	0.0	629.3410117279013	1030.8820345539866	0.0	634.1622896897597	1117.4002207583828	0.0	644.0745266123844	1174.5815537199078	0.0	643.1967446994242	1209.262400338734	0.0	630.391613110661	1201.6353576895658	0.0	646.5242762838081	1179.7674488046302	0.0	682.3489009146617	1032.2352214850625	0.0	671.2930479291639	1126.886709983629	0.0	662.9934716840469	1233.9376350735558	0.0	662.9116667035055	1263.614351479768	0.0	676.958415297529	1261.141025788349	0.0	658.0874807581175	1251.7270176529432	0.0	665.2697865585285	882.656315380785	0.0	673.6009212832872	818.8578897056439	0.0	672.6601585812344	883.6508827059347	0.0	613.7199328898892	892.8966137711059	0.0	588.4243835280762	963.1620014842449	0.0	579.6971834075846	1029.1270968455437	0.0	719.0193864976338	894.163496272828	0.0	729.1012655594249	959.1955034703077	0.0	735.8890265803643	1014.0428979298393	0.0
1083	36.11673620769588	659.0733826446852	1032.7736349930583	0.0	629.8535940388259	1034.0591034036381	0.0	633.3503491828225	1121.360571114992	0.0	643.2509705492339	1173.902520234003	0.0	643.6285975314829	1209.5451974355487	0.0	630.539668051579	1201.8539793946122	0.0	644.5972479688112	1179.4824620338745	0.0	683.0849974413235	1035.6753488894801	0.0	671.3179845637998	1130.3286714285355	0.0	661.459616030224	1237.9324996523592	0.0	661.1416826564441	1274.8400311298967	0.0	676.1794821977653	1270.8370091723266	0.0	656.5618742502182	1254.1136000029273	0.0	666.7965834898333	886.1241090188728	0.0	675.8983713373269	820.5154934729438	0.0	674.2189654626474	886.7521986227047	0.0	614.7050202294907	895.814439728183	0.0	589.8717188659557	966.1432792225108	0.0	581.4163311706217	1032.7313036126634	0.0	720.6581522947565	897.3730727883541	0.0	730.9640995737324	962.4694879248619	0.0	738.0571511956371	1018.1399529722285	0.0
1084	36.15008499459125	659.5313819951194	1036.53618924826	0.0	630.2105063552757	1037.110652454632	0.0	632.4212081099781	1125.457489213703	0.0	640.9348194611373	1173.6298394078967	0.0	643.7950593638265	1209.9831277266646	0.0	630.3616629076183	1202.5981571645632	0.0	642.1387443528181	1179.630555320269	0.0	684.3450541307637	1038.9219541052391	0.0	672.5731205126742	1135.033515131586	0.0	661.1771778949503	1242.1435309182257	0.0	659.9171368976015	1283.7485842431731	0.0	676.6180076973702	1279.4029106910743	0.0	656.0797285786776	1255.1749760347307	0.0	668.0787914496997	889.4657710434492	0.0	677.6815324684338	824.4801343753755	0.0	674.7228182745287	890.4391785212064	0.0	615.9100660278945	897.9212324598354	0.0	591.6120599368601	968.8416459594365	0.0	583.0742062472027	1036.3008956994354	0.0	722.5275240161752	899.8996383073285	0.0	732.932938142006	964.8509888264881	0.0	740.2333536052072	1022.2575272545656	0.0
1085	36.183433781486634	660.1339237817509	1040.1767993329904	0.0	630.4138382764777	1040.120370372185	0.0	631.264747359116	1129.5029976273395	0.0	637.170939345013	1173.5322110105888	0.0	642.9081795357736	1210.7843213292078	0.0	628.6218756299511	1203.7902979311439	0.0	639.1457126143939	1178.998129598557	0.0	685.9738951973261	1042.6013120953853	0.0	674.7893405036501	1140.9019926960302	0.0	661.381305864875	1245.6531119389447	0.0	659.0109827883955	1287.1739617580326	0.0	677.21052845164	1283.564646925765	0.0	656.1418931692313	1255.8056975751151	0.0	669.1801840857302	892.092669891782	0.0	679.360137682725	829.3915477478445	0.0	675.7245909513111	894.2719344631544	0.0	616.8619309031012	899.4403819514483	0.0	592.916878742944	971.441039335781	0.0	584.209350619162	1039.2961037144073	0.0	724.276952596736	901.3786985445474	0.0	735.0081650427425	966.2986748720156	0.0	742.2443913009918	1025.276734625239	0.0
1086	36.216782568382015	660.9924414885896	1043.3525622417499	0.0	630.9925868018452	1042.9155818741513	0.0	630.1015431309006	1132.9468209936222	0.0	633.2589080340686	1174.4031902313245	0.0	640.1257912142211	1213.430907038428	0.0	625.1323706971355	1206.385750494661	0.0	635.9200185390978	1178.4261325319994	0.0	687.354860989518	1045.9521527652528	0.0	676.6838660396847	1145.7686638932405	0.0	661.638102201341	1247.4693128900894	0.0	658.6244065607386	1287.5649414466525	0.0	677.3635793374791	1284.6832602105817	0.0	656.2090275717102	1256.2484381029578	0.0	670.0696795359669	894.0353840394135	0.0	681.22950368353	831.6496739016702	0.0	677.5059579435974	896.6035185426226	0.0	617.3937103985085	900.9400219815573	0.0	593.4169638990733	974.0054816082387	0.0	584.7403787580539	1041.725632982178	0.0	725.8199142794523	902.5456344663296	0.0	737.2123243657287	967.8569031360651	0.0	744.3161823651378	1027.8412250205427	0.0
1087	36.2501313552774	661.992358066126	1045.623306510431	0.0	632.1416150891414	1045.1756960191626	0.0	629.1508671690437	1135.7655757655557	0.0	630.3512087671593	1177.996197737428	0.0	636.1672446684869	1219.923672820116	0.0	621.1922915734024	1212.1611717265662	0.0	632.9113989116393	1180.830226339457	0.0	688.4118879549043	1048.1285502157514	0.0	677.4965874649816	1148.4242016273413	0.0	662.0252211221408	1248.1865701064612	0.0	658.9929571664406	1287.79010096848	0.0	677.0550993624537	1285.094055977541	0.0	656.2992447570381	1256.5467253004422	0.0	670.8156674596975	895.6199455297569	0.0	682.3234838345379	830.8309929434841	0.0	678.8560671070674	896.7523315946459	0.0	617.7989060614058	902.5876540280941	0.0	593.5257005154257	976.2270239993911	0.0	584.6322267763777	1043.757173073786	0.0	727.2667566856319	903.9086354881563	0.0	739.6428979348893	969.9571048167011	0.0	746.8470103657245	1030.704907757043	0.0
1088	36.28348014217277	662.9545688234498	1047.539277049232	0.0	633.1817436889777	1047.0080355035961	0.0	628.6423919522188	1139.1613179292672	0.0	628.2256354372009	1185.5779590799898	0.0	632.3188496338499	1230.749008821329	0.0	617.6728699982523	1222.1133171303072	0.0	630.1567539370534	1188.63275070583	0.0	689.653807147671	1049.8935381120837	0.0	678.0565477038765	1150.577224048329	0.0	662.4716071074049	1248.9538011376942	0.0	659.8425223852237	1288.1029655904333	0.0	676.7411526030647	1285.363147988793	0.0	656.5488255287647	1256.8928551344043	0.0	671.7845458389514	896.9705609625689	0.0	682.8793368526535	830.0810898936681	0.0	679.7902825768665	896.9326158767087	0.0	618.4729987977452	903.8259071975302	0.0	593.71422689195	977.497890146159	0.0	583.9347054358212	1045.3304023207754	0.0	728.6675255915355	904.8725263783734	0.0	742.2495525340283	971.7182481723563	0.0	749.7060393010394	1033.2247975755467	0.0
1089	36.31682892906815	663.6586486583149	1050.1037812769732	0.0	633.3824239376488	1049.1596573382312	0.0	628.833523011615	1144.2454131164998	0.0	626.3591419018715	1197.1856172385424	0.0	629.0900665124169	1244.9351557365496	0.0	614.616042221224	1235.9790292110943	0.0	627.7938740159838	1201.7916788683674	0.0	691.212397177086	1052.54500415847	0.0	679.3308139195028	1154.03919791615	0.0	662.7198785532382	1249.9663814559965	0.0	660.5678644576232	1288.2850723353063	0.0	676.7921732399193	1285.6914118652778	0.0	656.8272780213535	1257.2906402741914	0.0	673.2519884023803	898.4154109222656	0.0	684.4614023616389	831.6678157703907	0.0	680.9779317167756	899.3081623484265	0.0	619.5899926956757	904.2652456062899	0.0	593.9179748790566	977.9507938369966	0.0	582.9352421971254	1046.5600095577295	0.0	730.120749866109	905.1537827088335	0.0	744.8734595177231	972.7818751990795	0.0	752.6605624626245	1035.2119348473184	0.0
